<svg width="45" height="46" viewBox="0 0 45 46" fill="none" xmlns="http://www.w3.org/2000/svg">
<path d="M37.606 16.9596C37.7434 16.9531 37.8768 16.9512 38.0135 16.9701C38.4408 17.0293 38.8618 17.2265 39.0971 17.5849C39.3468 17.9653 39.3809 18.4717 39.4151 18.9123C39.5846 21.0927 39.4587 23.361 39.4581 25.5492C39.4576 27.3362 39.6649 29.7594 39.3176 31.4803C39.2084 32.0212 38.833 32.2799 38.3835 32.5725C38.2123 32.5923 38.0331 32.615 37.8604 32.6055C37.4746 32.5848 37.1092 32.4205 36.8597 32.1392C36.6131 31.8607 36.6202 31.3019 36.5983 30.9526C36.4416 28.4444 36.5741 25.856 36.5765 23.3403C36.5779 21.9107 36.3722 19.1741 36.6867 17.8983C36.7993 17.4418 37.2298 17.2026 37.606 16.9596Z" fill="white"/>
<path d="M33.6671 20.4619C34.13 20.5435 34.5396 20.7097 34.8094 21.0939C35.2255 21.6866 35.2367 27.4938 35.0283 28.3226C34.9143 28.7757 34.504 28.9966 34.1151 29.2147C33.6696 29.1892 33.0841 29.1514 32.7867 28.7823C32.344 28.2339 32.3806 22.062 32.6326 21.288C32.7791 20.8383 33.2629 20.6482 33.6671 20.4619Z" fill="white"/>
<path d="M21.1854 2.18716C21.7456 2.12269 22.3947 2.24814 22.9344 2.41259C24.1554 2.78452 25.1471 3.58087 25.7359 4.7179C26.3477 5.88345 26.465 7.24601 26.0615 8.49897C25.5491 10.0442 24.4505 10.8207 23.0781 11.5348L23.0937 16.0416C24.0745 16.3407 25.0286 16.6793 25.9192 17.1955C27.9661 18.382 29.366 20.3828 29.953 22.6593C30.5735 25.0466 30.2205 27.5831 28.9718 29.7108C27.8265 31.6394 26.0007 33.0639 23.8145 33.6095C20.9585 34.3232 18.5365 33.55 16.0819 32.0906C14.9968 33.2508 13.9251 34.4242 12.8671 35.6098C13.3401 36.7256 13.4965 37.8962 13.1828 39.0818C12.8762 40.2411 12.064 41.2341 11.0249 41.8213C9.86068 42.4802 8.53457 42.6001 7.25819 42.2348C5.99155 41.8723 4.92701 41.0878 4.30794 39.9088C3.69859 38.7495 3.64705 37.3911 4.04211 36.1536C4.49155 34.747 5.40693 33.8804 6.69397 33.2376C8.07918 32.6957 9.22425 32.8741 10.5764 33.3612C11.7022 32.1765 12.7623 30.9324 13.8997 29.758C12.6496 27.3065 12.2446 25.2184 12.8946 22.517C11.4793 21.8563 10.115 21.087 8.69891 20.4252C7.94221 21.2129 7.01719 21.7528 5.93094 21.9356C4.6356 22.1536 3.26993 21.8003 2.2052 21.0397C1.15029 20.2755 0.456268 19.1109 0.285877 17.8195C0.110956 16.5672 0.44069 15.1871 1.24271 14.1988C2.06974 13.1795 3.35328 12.5646 4.64929 12.4289C5.92273 12.3049 7.19315 12.6932 8.17953 13.5081C9.4407 14.5644 9.80461 15.8772 9.95754 17.4422C11.2998 18.2651 12.8368 18.8995 14.2354 19.6343C16.0551 17.4831 17.3846 16.8049 20.0368 15.9873L20.0391 11.5146C19.5643 11.3246 19.0902 11.0936 18.6764 10.7895C17.63 10.0154 16.9431 8.84928 16.7734 7.55875C16.6165 6.27483 16.9791 4.98128 17.7806 3.96602C18.6565 2.86721 19.8272 2.3669 21.1854 2.18716Z" fill="white"/>
<path d="M20.9848 19.3244C24.063 19.0741 26.7659 21.3557 27.0357 24.4326C27.3055 27.509 25.0411 30.2258 21.9664 30.5156C18.8639 30.8073 16.1168 28.5182 15.8446 25.4134C15.5723 22.3096 17.879 19.5771 20.9848 19.3244Z" fill="#0B0B0A"/>
</svg>
